<svg width="20" height="20" viewBox="0 0 20 20" fill="none" xmlns="http://www.w3.org/2000/svg">
<g clip-path="url(#clip0)">
<path d="M17.9167 15H15.4167C15.1867 15 15 14.8133 15 14.5833C15 14.3533 15.1867 14.1667 15.4167 14.1667H17.9167C18.6058 14.1667 19.1667 13.6058 19.1667 12.9167V7.08333C19.1667 6.39417 18.6058 5.83333 17.9167 5.83333H2.08333C1.39417 5.83333 0.833333 6.39417 0.833333 7.08333V12.9167C0.833333 13.6058 1.39417 14.1667 2.08333 14.1667H4.58333C4.81333 14.1667 5 14.3533 5 14.5833C5 14.8133 4.81333 15 4.58333 15H2.08333C0.934167 15 0 14.065 0 12.9167V7.08333C0 5.935 0.934167 5 2.08333 5H17.9167C19.0658 5 20 5.935 20 7.08333V12.9167C20 14.065 19.0658 15 17.9167 15Z" fill="#0A7F2E"/>
<path d="M12.0827 17.5001H7.08268C6.85268 17.5001 6.66602 17.3134 6.66602 17.0834C6.66602 16.8534 6.85268 16.6667 7.08268 16.6667H12.0827C12.3127 16.6667 12.4994 16.8534 12.4994 17.0834C12.4994 17.3134 12.3127 17.5001 12.0827 17.5001Z" fill="#0A7F2E"/>
<path d="M12.0827 15.8333H7.08268C6.85268 15.8333 6.66602 15.6467 6.66602 15.4167C6.66602 15.1867 6.85268 15 7.08268 15H12.0827C12.3127 15 12.4994 15.1867 12.4994 15.4167C12.4994 15.6467 12.3127 15.8333 12.0827 15.8333Z" fill="#0A7F2E"/>
<path d="M8.74935 14.1666H7.08268C6.85268 14.1666 6.66602 13.9799 6.66602 13.7499C6.66602 13.5199 6.85268 13.3333 7.08268 13.3333H8.74935C8.97935 13.3333 9.16602 13.5199 9.16602 13.7499C9.16602 13.9799 8.97935 14.1666 8.74935 14.1666Z" fill="#0A7F2E"/>
<path d="M15.416 5.83333C15.186 5.83333 14.9993 5.64667 14.9993 5.41667V2.08333C14.9993 1.39417 14.4385 0.833333 13.7493 0.833333H6.24935C5.56018 0.833333 4.99935 1.39417 4.99935 2.08333V5.41667C4.99935 5.64667 4.81268 5.83333 4.58268 5.83333C4.35268 5.83333 4.16602 5.64667 4.16602 5.41667V2.08333C4.16602 0.935 5.10018 0 6.24935 0H13.7493C14.8985 0 15.8327 0.935 15.8327 2.08333V5.41667C15.8327 5.64667 15.646 5.83333 15.416 5.83333Z" fill="#0A7F2E"/>
<path d="M13.7493 19.9999H6.24935C5.10018 19.9999 4.16602 19.0649 4.16602 17.9166V11.2499C4.16602 11.0199 4.35268 10.8333 4.58268 10.8333H15.416C15.646 10.8333 15.8327 11.0199 15.8327 11.2499V17.9166C15.8327 19.0649 14.8985 19.9999 13.7493 19.9999ZM4.99935 11.6666V17.9166C4.99935 18.6058 5.56018 19.1666 6.24935 19.1666H13.7493C14.4385 19.1666 14.9993 18.6058 14.9993 17.9166V11.6666H4.99935Z" fill="#0A7F2E"/>
</g>
<defs>
<clipPath id="clip0">
<rect width="20" height="20" fill="white"/>
</clipPath>
</defs>
</svg>
