<svg width="67" height="67" viewBox="0 0 67 67" fill="none" xmlns="http://www.w3.org/2000/svg">
<g clip-path="url(#clip0)">
<path d="M6.0055 36.6616C6.54752 36.6616 6.98695 36.2221 6.98695 35.6801V10.7632C6.98695 10.5758 7.13927 10.4233 7.32666 10.4229H7.32692H54.9151H54.9158C55.1033 10.4231 55.2557 10.5757 55.2557 10.7632V22.5942C55.2557 23.1362 55.6952 23.5756 56.2372 23.5756C56.7792 23.5756 57.2186 23.1362 57.2186 22.5942V10.7632C57.2186 9.84442 56.6765 9.0518 55.8964 8.68252V6.53342C55.8964 5.61465 55.3544 4.82217 54.5745 4.45275V2.30339C54.5746 1.03327 53.5414 0 52.2712 0H9.97067C8.70055 0 7.66729 1.03327 7.66729 2.30339V4.45275C6.88736 4.82217 6.34534 5.61465 6.34534 6.53342V8.68291C5.56568 9.05233 5.02393 9.84468 5.02393 10.7632V35.6801C5.02406 36.2221 5.46348 36.6616 6.0055 36.6616ZM8.30837 6.53342C8.30837 6.34563 8.46108 6.19292 8.64886 6.19292H53.5933C53.7811 6.19292 53.9338 6.34563 53.9338 6.53342V8.46006H8.30837V6.53342ZM9.63031 2.30339C9.63031 2.1156 9.78302 1.96289 9.9708 1.96289H52.2714C52.4591 1.96289 52.6119 2.1156 52.6119 2.30339V4.23016H9.63031V2.30339Z" fill="#0A7F2E"/>
<path d="M42.8925 33.041C40.5099 30.6584 37.3423 29.3464 33.9729 29.3464C30.6036 29.3464 27.4359 30.6586 25.0534 33.041C22.671 35.4234 21.3589 38.5911 21.3589 41.9605C21.3589 45.3299 22.671 48.4976 25.0534 50.88C27.4359 53.2624 30.6036 54.5746 33.9729 54.5746C37.3423 54.5746 40.51 53.2624 42.8925 50.88C45.2749 48.4976 46.587 45.3299 46.587 41.9605C46.587 38.5911 45.2749 35.4234 42.8925 33.041ZM41.5044 49.4921C39.4926 51.5038 36.818 52.6118 33.9728 52.6118C31.1277 52.6118 28.453 51.5038 26.4412 49.4921C24.4295 47.4803 23.3215 44.8056 23.3215 41.9605C23.3215 39.1154 24.4295 36.4407 26.4412 34.4289C28.453 32.4172 31.1277 31.3092 33.9728 31.3092C36.818 31.3092 39.4926 32.4172 41.5044 34.4289C43.5161 36.4407 44.6241 39.1154 44.6241 41.9605C44.6241 44.8056 43.5161 47.4803 41.5044 49.4921Z" fill="#0A7F2E"/>
<path d="M64.3335 65.3246L59.862 60.8531V48.8341C59.862 48.292 59.4226 47.8526 58.8806 47.8526H57.2187V27.1742C57.2187 26.6322 56.7792 26.1928 56.2372 26.1928C55.6952 26.1928 55.2558 26.6322 55.2558 27.1742V47.8526H49.7516C51.9776 41.8642 50.6888 34.8548 45.8838 30.0497C40.0584 24.2244 30.9931 23.567 24.4355 28.0756V13.6716C24.4355 13.1296 23.9961 12.6902 23.4541 12.6902H10.2352C9.69316 12.6902 9.25373 13.1296 9.25373 13.6716V30.0631C9.25373 30.6051 9.69316 31.0445 10.2352 31.0445H21.1448C17.1011 35.7897 16.118 42.2654 18.1948 47.8526H6.98699V40.2602C6.98699 39.7181 6.54756 39.2787 6.00554 39.2787C5.46352 39.2787 5.0241 39.7181 5.0241 40.2602V47.8526H3.36088C3.09916 47.8526 2.8483 47.9572 2.66392 48.143C2.47954 48.3288 2.37721 48.5807 2.37943 48.8424L2.52599 66.0269C2.53057 66.5656 2.96856 67 3.50744 67H9.33853C9.88055 67 10.32 66.5605 10.32 66.0185C10.32 65.4765 9.88055 65.0371 9.33853 65.0371H4.48064L4.35083 49.8155H19.0712C19.8395 51.2751 20.8365 52.6448 22.0625 53.871C25.3463 57.1548 29.6597 58.7967 33.9732 58.7967C36.6881 58.7967 39.403 58.1456 41.8611 56.8446L44.6827 59.6662C44.8667 59.8503 45.1164 59.9537 45.3767 59.9537C45.637 59.9537 45.8866 59.8503 46.0706 59.6662L46.4983 59.2384L48.4753 61.2155L48.0476 61.6431C47.6644 62.0264 47.6644 62.6479 48.0476 63.031L50.0536 65.0371H13.9186C13.3766 65.0371 12.9372 65.4765 12.9372 66.0185C12.9372 66.5605 13.3766 67 13.9186 67H52.4227C52.4235 67 52.424 66.9998 52.4249 66.9998C52.6754 66.9993 52.9258 66.9037 53.1169 66.7125C53.5002 66.3292 53.5002 65.7077 53.1169 65.3246L50.1296 62.3373L54.35 58.117L62.9456 66.7126C63.1372 66.9042 63.3884 67.0001 63.6395 67.0001C63.8907 67.0001 64.1419 66.9043 64.3335 66.7126C64.7169 66.3293 64.7169 65.7077 64.3335 65.3246ZM11.2166 14.6531H22.4726V29.0816H11.2166V14.6531ZM23.4504 52.4831C17.6482 46.6809 17.6482 37.2399 23.4504 31.4378C26.3516 28.5367 30.1623 27.0862 33.9731 27.0862C37.7838 27.0862 41.5946 28.5366 44.4957 31.4378C50.2979 37.2399 50.2979 46.6809 44.4957 52.4831C38.6934 58.2851 29.2526 58.2851 23.4504 52.4831ZM43.5864 55.794C44.3944 55.2319 45.1639 54.591 45.8838 53.871C46.6036 53.151 47.2446 52.3817 47.8067 51.5736L49.5972 53.3639L45.3768 57.5842L43.5864 55.794ZM47.8863 57.8507L49.8633 55.8736L51.8403 57.8507L49.8633 59.8277L47.8863 57.8507ZM53.656 56.035L53.2284 56.4626L51.2514 54.4856L51.679 54.0578C51.8631 53.8739 51.9665 53.6242 51.9665 53.3639C51.9665 53.1036 51.8631 52.8539 51.679 52.67L48.8574 49.8484C48.8632 49.8374 48.8693 49.8265 48.8752 49.8155H57.8993V58.8902L55.044 56.035C54.6608 55.6517 54.0393 55.6517 53.656 56.035Z" fill="#0A7F2E"/>
<path d="M52.0067 12.6902H27.9482C27.4062 12.6902 26.9668 13.1296 26.9668 13.6716C26.9668 14.2137 27.4062 14.6531 27.9482 14.6531H52.0067C52.5488 14.6531 52.9882 14.2137 52.9882 13.6716C52.9882 13.1296 52.5488 12.6902 52.0067 12.6902Z" fill="#0A7F2E"/>
<path d="M52.9882 17.9016C52.9882 17.3596 52.5488 16.9202 52.0067 16.9202H27.9482C27.4062 16.9202 26.9668 17.3596 26.9668 17.9016C26.9668 18.4436 27.4062 18.8831 27.9482 18.8831H52.0067C52.5488 18.8831 52.9882 18.4436 52.9882 17.9016Z" fill="#0A7F2E"/>
<path d="M27.9487 21.1504C27.4067 21.1504 26.9673 21.5898 26.9673 22.1318C26.9673 22.6739 27.4067 23.1133 27.9487 23.1133H44.0759C44.6179 23.1133 45.0573 22.6739 45.0573 22.1318C45.0573 21.5898 44.6179 21.1504 44.0759 21.1504H27.9487Z" fill="#0A7F2E"/>
</g>
<defs>
<clipPath id="clip0">
<rect width="67" height="67" fill="white"/>
</clipPath>
</defs>
</svg>
