<svg width="20" height="20" viewBox="0 0 20 20" fill="none" xmlns="http://www.w3.org/2000/svg">
<path d="M19.8729 9.61109C19.6942 9.36668 15.4371 3.62646 9.9999 3.62646C4.56274 3.62646 0.305391 9.36668 0.126914 9.61086C-0.0423048 9.84273 -0.0423048 10.1572 0.126914 10.3891C0.305391 10.6335 4.56274 16.3737 9.9999 16.3737C15.4371 16.3737 19.6942 10.6335 19.8729 10.3893C20.0423 10.1575 20.0423 9.84273 19.8729 9.61109ZM9.9999 15.0551C5.99486 15.0551 2.52606 11.2452 1.49922 9.99965C2.52473 8.75304 5.98626 4.94514 9.9999 4.94514C14.0048 4.94514 17.4733 8.75437 18.5006 10.0005C17.4751 11.2471 14.0135 15.0551 9.9999 15.0551Z" fill="#666666"/>
<path d="M9.99951 6.04395C7.81818 6.04395 6.04346 7.81868 6.04346 10C6.04346 12.1813 7.81818 13.9561 9.99951 13.9561C12.1808 13.9561 13.9556 12.1813 13.9556 10C13.9556 7.81868 12.1808 6.04395 9.99951 6.04395ZM9.99951 12.6374C8.54521 12.6374 7.36217 11.4543 7.36217 10C7.36217 8.54575 8.54525 7.36266 9.99951 7.36266C11.4538 7.36266 12.6369 8.54575 12.6369 10C12.6369 11.4543 11.4538 12.6374 9.99951 12.6374Z" fill="#666666"/>
</svg>
