<svg width="20" height="16" viewBox="0 0 20 16" fill="none" xmlns="http://www.w3.org/2000/svg">
<path d="M18.3529 0.588379H1.64707C0.738828 0.588379 0 1.32721 0 2.23545V13.7649C0 14.6729 0.738828 15.4119 1.64707 15.4119H18.353C19.261 15.4119 20 14.6729 20 13.7649V2.23545C20 1.32721 19.2609 0.588379 18.3529 0.588379ZM18.5882 13.7648C18.5882 13.8924 18.4805 14.0001 18.353 14.0001H1.64707C1.51953 14.0001 1.41176 13.8924 1.41176 13.7648V4.70955L9.52445 9.4792C9.74281 9.60768 10.0134 9.60932 10.2332 9.48342L18.5882 4.69658V13.7648ZM18.5882 3.06955L9.88707 8.05451L1.41176 3.07166V2.23541C1.41176 2.10787 1.51953 2.00014 1.64707 2.00014H18.353C18.4805 2.00014 18.5882 2.10791 18.5882 2.23541V3.06955Z" fill="black"/>
</svg>
