<svg width="20" height="20" viewBox="0 0 20 20" fill="none" xmlns="http://www.w3.org/2000/svg">
<path d="M12.1046 0C11.8196 0 11.5728 0.10421 11.3646 0.312574L5.88774 5.78947H1.5787C1.29343 5.78947 1.0467 5.89368 0.838453 6.10193C0.630032 6.31052 0.525879 6.55708 0.525879 6.84217V13.1578C0.525879 13.4429 0.630089 13.6896 0.838453 13.8979C1.04693 14.1063 1.2936 14.2106 1.5787 14.2106H5.88774L11.3646 19.6877C11.5727 19.8956 11.8196 19.9999 12.1046 19.9999C12.3897 19.9999 12.6365 19.8956 12.8451 19.6877C13.0533 19.4793 13.1574 19.2325 13.1574 18.9476V1.05282C13.1574 0.767782 13.0533 0.520822 12.8451 0.312516C12.6363 0.10421 12.3897 0 12.1046 0Z" fill="#E0DDDD"/>
<path d="M18.7739 7.66372C18.3079 6.94007 17.6916 6.43013 16.9236 6.13421C16.8139 6.07948 16.6771 6.052 16.5127 6.052C16.2276 6.052 15.9808 6.15368 15.7726 6.35628C15.5645 6.55911 15.46 6.80867 15.46 7.10465C15.46 7.3349 15.5258 7.52956 15.6575 7.68855C15.7892 7.84766 15.9477 7.98476 16.1345 8.0998C16.3207 8.21496 16.5072 8.34112 16.6937 8.47811C16.8801 8.61521 17.039 8.80981 17.1707 9.06195C17.302 9.3141 17.3682 9.62655 17.3682 9.99944C17.3682 10.3726 17.302 10.6849 17.1707 10.9372C17.039 11.1896 16.8801 11.384 16.6937 11.5214C16.5072 11.6582 16.3207 11.7843 16.1345 11.8995C15.9477 12.0144 15.7892 12.1518 15.6575 12.3107C15.5258 12.4698 15.46 12.6644 15.46 12.8947C15.46 13.191 15.5644 13.4399 15.7726 13.643C15.9808 13.8457 16.2276 13.9472 16.5127 13.9472C16.6771 13.9472 16.8139 13.9197 16.9236 13.8651C17.6916 13.5582 18.3079 13.0455 18.7739 12.3277C19.2403 11.6091 19.4734 10.8338 19.4734 10.0002C19.4734 9.16651 19.2398 8.38807 18.7739 7.66372Z" fill="#E0DDDD"/>
</svg>
