<svg width="20" height="20" viewBox="0 0 20 20" fill="none" xmlns="http://www.w3.org/2000/svg">
<path d="M9.29657 13.5931C9.07045 13.5931 8.86942 13.4926 8.7438 13.3419L4.94982 9.22124C4.67344 8.91975 4.69859 8.44234 5.00008 8.16595C5.30157 7.88957 5.77898 7.91472 6.05536 8.21621L9.32168 11.7589L18.3669 2.73881C18.6684 2.43732 19.1458 2.43732 19.4222 2.73881C19.6986 3.0403 19.7237 3.51771 19.4222 3.7941L9.82424 13.367C9.69858 13.5177 9.4976 13.5931 9.29657 13.5931Z" fill="#0A7F2E"/>
<path d="M10 20C4.49747 20 0 15.5025 0 10C0 4.49752 4.49747 0 10 0C10.4272 0 10.7538 0.326641 10.7538 0.753747C10.7538 1.18085 10.4271 1.50749 10 1.50749C5.32663 1.50749 1.50754 5.32658 1.50754 9.99998C1.50754 14.6734 5.32663 18.4925 10 18.4925C14.6734 18.4925 18.4925 14.6734 18.4925 9.99998C18.4925 9.57282 18.8191 9.24623 19.2463 9.24623C19.6734 9.24623 20 9.57287 20 9.99998C20 15.5025 15.5025 20 10 20Z" fill="#0A7F2E"/>
</svg>
