<svg width="24" height="24" viewBox="0 0 24 24" fill="none" xmlns="http://www.w3.org/2000/svg">
<g clip-path="url(#clip0)">
<path d="M14.1046 2.21313C13.8196 2.21313 13.5728 2.31735 13.3646 2.52571L7.88774 8.0026H3.5787C3.29343 8.0026 3.0467 8.10682 2.83845 8.31506C2.63003 8.52366 2.52588 8.77021 2.52588 9.05531V15.371C2.52588 15.656 2.63009 15.9028 2.83845 16.111C3.04693 16.3194 3.2936 16.4237 3.5787 16.4237H7.88774L13.3646 21.9008C13.5727 22.1087 13.8196 22.2131 14.1046 22.2131C14.3897 22.2131 14.6365 22.1087 14.8451 21.9008C15.0533 21.6924 15.1574 21.4456 15.1574 21.1607V3.26595C15.1574 2.98092 15.0533 2.73396 14.8451 2.52565C14.6363 2.31735 14.3897 2.21313 14.1046 2.21313Z" fill="#0A7F2E"/>
<path d="M20.7739 9.87686C20.3079 9.1532 19.6916 8.64327 18.9236 8.34734C18.8139 8.29262 18.6771 8.26514 18.5127 8.26514C18.2276 8.26514 17.9808 8.36681 17.7726 8.56942C17.5645 8.77225 17.46 9.0218 17.46 9.31778C17.46 9.54804 17.5258 9.74269 17.6575 9.90168C17.7892 10.0608 17.9477 10.1979 18.1345 10.3129C18.3207 10.4281 18.5072 10.5543 18.6937 10.6912C18.8801 10.8283 19.039 11.0229 19.1707 11.2751C19.302 11.5272 19.3682 11.8397 19.3682 12.2126C19.3682 12.5858 19.302 12.898 19.1707 13.1504C19.039 13.4027 18.8801 13.5971 18.6937 13.7345C18.5072 13.8713 18.3207 13.9975 18.1345 14.1126C17.9477 14.2275 17.7892 14.3649 17.6575 14.5239C17.5258 14.683 17.46 14.8775 17.46 15.1078C17.46 15.4041 17.5644 15.6531 17.7726 15.8561C17.9808 16.0588 18.2276 16.1603 18.5127 16.1603C18.6771 16.1603 18.8139 16.1329 18.9236 16.0783C19.6916 15.7713 20.3079 15.2586 20.7739 14.5408C21.2403 13.8222 21.4734 13.0469 21.4734 12.2134C21.4734 11.3796 21.2398 10.6012 20.7739 9.87686Z" fill="#0A7F2E"/>
</g>
<g filter="url(#filter0_d)">
<rect x="1" y="22.2131" width="30" height="1" transform="rotate(-45 1 22.2131)" fill="#0A7F2E"/>
</g>
<defs>
<filter id="filter0_d" x="0" y="0" width="23.9203" height="23.9203" filterUnits="userSpaceOnUse" color-interpolation-filters="sRGB">
<feFlood flood-opacity="0" result="BackgroundImageFix"/>
<feColorMatrix in="SourceAlpha" type="matrix" values="0 0 0 0 0 0 0 0 0 0 0 0 0 0 0 0 0 0 127 0"/>
<feOffset/>
<feGaussianBlur stdDeviation="0.5"/>
<feColorMatrix type="matrix" values="0 0 0 0 0 0 0 0 0 0 0 0 0 0 0 0 0 0 0.29 0"/>
<feBlend mode="normal" in2="BackgroundImageFix" result="effect1_dropShadow"/>
<feBlend mode="normal" in="SourceGraphic" in2="effect1_dropShadow" result="shape"/>
</filter>
<clipPath id="clip0">
<rect width="20" height="20" fill="white" transform="translate(2 2.21313)"/>
</clipPath>
</defs>
</svg>
